<svg xmlns="http://www.w3.org/2000/svg" viewBox="0 0 960.462 1081">
  <defs>
    <style>
      .cls-1, .cls-2 {
        fill: none;
      }

      .cls-1 {
        stroke: #fff;
      }

      .cls-2 {
        stroke: #707070;
      }
    </style>
  </defs>
  <g id="Group_55" data-name="Group 55" transform="translate(-0.264 -0.5)">
    <line id="Line_27" data-name="Line 27" class="cls-1" x1="595" transform="translate(191.5 742.5)"/>
    <line id="Line_28" data-name="Line 28" class="cls-1" x1="174" y1="87" transform="translate(786.5 742.5)"/>
    <line id="Line_29" data-name="Line 29" class="cls-1" y1="742" transform="translate(191.5 0.5)"/>
    <line id="Line_30" data-name="Line 30" class="cls-1" y1="742" transform="translate(786.5 0.5)"/>
    <line id="Line_52" data-name="Line 52" class="cls-1" y1="87" x2="190" transform="translate(1.5 742.5)"/>
    <line id="Line_53" data-name="Line 53" class="cls-1" y1="148" x2="276" transform="translate(0.5 917.5)"/>
    <line id="Line_54" data-name="Line 54" class="cls-1" x1="279" y1="141" transform="translate(681.5 917.5)"/>
    <line id="Line_55" data-name="Line 55" class="cls-1" x2="405" transform="translate(276.5 917.5)"/>
    <line id="Line_56" data-name="Line 56" class="cls-1" y2="164" transform="translate(276.5 917.5)"/>
    <line id="Line_57" data-name="Line 57" class="cls-1" y2="164" transform="translate(679.5 916.5)"/>
    <line id="Line_59" data-name="Line 59" class="cls-2" x1="43" y2="37" transform="translate(294.5 932.5)"/>
    <line id="Line_60" data-name="Line 60" class="cls-2" x1="95" y2="92" transform="translate(295.5 932.5)"/>
    <line id="Line_61" data-name="Line 61" class="cls-2" x1="150" y2="141" transform="translate(310.5 927.5)"/>
    <line id="Line_62" data-name="Line 62" class="cls-2" x1="145" y2="148" transform="translate(400.5 927.5)"/>
    <line id="Line_63" data-name="Line 63" class="cls-2" x1="126" y2="148" transform="translate(503.5 927.5)"/>
    <line id="Line_64" data-name="Line 64" class="cls-2" x1="83" y2="102" transform="translate(576.5 963.5)"/>
    <line id="Line_65" data-name="Line 65" class="cls-2" x1="35" y2="43" transform="translate(629.5 1032.5)"/>
    <line id="Line_66" data-name="Line 66" class="cls-2" y2="131" transform="translate(255.5 949.5)"/>
    <line id="Line_67" data-name="Line 67" class="cls-2" y2="108" transform="translate(208.5 972.5)"/>
    <line id="Line_68" data-name="Line 68" class="cls-2" y2="89" transform="translate(161.5 991.5)"/>
    <line id="Line_69" data-name="Line 69" class="cls-2" y2="61" transform="translate(114.5 1019.5)"/>
    <line id="Line_70" data-name="Line 70" class="cls-2" y2="34" transform="translate(67.5 1046.5)"/>
    <line id="Line_71" data-name="Line 71" class="cls-2" y2="15" transform="translate(23.5 1065.5)"/>
    <line id="Line_72" data-name="Line 72" class="cls-2" y2="141" transform="translate(696.5 939.5)"/>
    <line id="Line_73" data-name="Line 73" class="cls-2" x2="0.012" y2="118" transform="translate(745.488 962.5)"/>
    <line id="Line_74" data-name="Line 74" class="cls-2" x2="0.024" y2="97" transform="translate(794.476 983.5)"/>
    <line id="Line_75" data-name="Line 75" class="cls-2" x2="0.036" y2="71" transform="translate(843.464 1009.5)"/>
    <line id="Line_76" data-name="Line 76" class="cls-2" x2="0.048" y2="44" transform="translate(892.452 1036.5)"/>
    <line id="Line_77" data-name="Line 77" class="cls-2" x2="0.187" y2="25" transform="translate(938.313 1055.5)"/>
    <line id="Line_78" data-name="Line 78" class="cls-1" x2="85" y2="175" transform="translate(191.5 742.5)"/>
    <line id="Line_79" data-name="Line 79" class="cls-1" x1="105" y2="175" transform="translate(681.5 742.5)"/>
  </g>
</svg>
