<svg width="100%" height="100%" viewBox="0 0 355 72" version="1.1" style="fill-rule:evenodd;clip-rule:evenodd;stroke-linecap:square;stroke-miterlimit:1.5;">
<g>
<use xlink:href="#_Image1" x="1" y="1" width="184.561px" height="69.335px" transform="matrix(0.997627,0,0,0.990504,0,0)"/>
<rect x="8.779" y="8.779" width="168.998" height="53.759"/>
<path d="M177.777,62.537l-168.998,0l0,-53.758l168.998,0l0,53.758Zm-167.998,-52.758l0,51.758l166.998,0l0,-51.758l-166.998,0Z" style="fill:#fff;"/>
<use xlink:href="#_Image2" x="169.166" y="1.955" width="184.682px" height="67.41px" transform="matrix(0.998282,0,0,0.99133,0,0)"/>
<rect x="176.656" y="9.725" width="169.121" height="51.835"/>
<use xlink:href="#_Image3" x="85.712" y="16.685" width="182.763px" height="36.837px" transform="matrix(0.998704,0,0,0.995587,0,0)"/>
<text x="90.462px" y="45.156px" style="font-family:'MalayalamSangamMN', 'Malayalam Sangam MN';font-size:29.735px;fill:#fff;">DEVELOPER
</text>
</g>
<defs>
<image id="_Image1" width="185px" height="70px" />
</svg>